<svg width="373" height="381" viewBox="0 0 373 381" fill="none" xmlns="http://www.w3.org/2000/svg">
<g clip-path="url(#clip0)">
<rect width="372.187" height="380.886" rx="186.094" fill="#0191FF" fill-opacity="0.8"/>
<rect width="372.187" height="380.886" rx="186.094" fill="url(#paint0_radial)"/>
<path d="M186.046 370.886C111.031 370.886 41.728 324.07 13.7474 254.448C6.51648 236.438 2.16747 217.402 0.86024 198.038C-0.44887 178.572 3.02289 158.469 8.8214 139.909C19.8268 104.937 40.8844 73.9785 69.3681 50.8949C128.402 3.12575 213.239 -3.54213 278.974 34.548C310.943 53.1315 336.691 80.7702 352.965 113.975C361.214 130.894 366.829 148.975 369.616 167.591C372.489 187.377 371.587 207.529 366.959 226.98C350.165 300.113 288.571 357.365 214.398 368.733C205.014 370.151 195.537 370.871 186.046 370.886C185.96 370.886 185.982 380.886 186.046 380.886C265.866 380.589 338.472 328.129 362.867 251.901C374.138 216.681 375.12 176.141 366.173 140.267C356.649 102.456 335.518 68.5797 305.749 43.3962C244.845 -8.04462 155.041 -14.4633 87.4893 27.9442C54.6523 48.6164 29.0566 78.9885 14.2474 114.854C0.0874243 149.366 -3.14634 188.916 2.90016 225.645C15.7227 303.533 79.0367 366.382 157.017 378.629C166.62 380.134 176.326 380.889 186.046 380.886C186.12 380.886 186.122 370.886 186.046 370.886Z" fill="url(#paint1_radial)"/>
<g filter="url(#filter0_d)">
<path d="M80.5774 251.387C75.2877 251.387 72.6428 249.881 72.6428 246.87C72.6428 244.51 74.1077 243.33 77.0374 243.33L83.0188 243.94C87.9016 243.94 91.1975 241.214 92.9065 235.762C94.29 231.123 94.9817 222.822 94.9817 210.859V124.678C94.9817 112.715 94.412 104.902 93.2727 101.24C92.1334 97.4966 90.7499 94.9738 89.1223 93.6718C87.5761 92.2883 85.5416 91.5966 83.0188 91.5966L77.0374 92.0848C74.1077 92.0848 72.6428 90.9048 72.6428 88.5448C72.6428 85.5337 74.8808 84.0282 79.3567 84.0282C83.8326 84.0282 88.0644 84.3537 92.052 85.0048C96.121 85.6558 100.597 85.9813 105.48 85.9813C110.444 85.9813 114.798 85.6558 118.541 85.0048C122.366 84.3537 125.703 84.0282 128.551 84.0282C145.966 84.0282 160.045 89.3179 170.787 99.8973C180.553 109.582 185.436 121.26 185.436 134.932C185.436 147.545 180.553 158.532 170.787 167.891C161.184 177.005 150.198 181.562 137.828 181.562C128.307 181.562 121.796 179.691 118.297 175.947C117.239 174.808 116.71 173.587 116.71 172.285C116.71 170.902 117.076 169.884 117.809 169.233C118.623 168.501 119.599 168.135 120.739 168.135C121.878 168.135 123.465 168.908 125.499 170.454C128.673 172.733 132.62 173.872 137.34 173.872C142.06 173.872 146.048 172.977 149.303 171.186C152.64 169.315 155.447 166.71 157.726 163.374C162.446 156.457 164.806 147.139 164.806 135.42C164.806 122.236 161.144 111.738 153.82 103.926C146.74 96.3573 137.544 92.5731 126.232 92.5731C122.081 92.5731 119.03 93.1428 117.076 94.2821C115.123 95.4214 114.147 97.3746 114.147 100.141V210.859C114.147 223.148 114.676 231.082 115.734 234.663C116.873 238.162 118.216 240.604 119.762 241.987C121.39 243.289 123.505 243.94 126.11 243.94L131.969 243.33C134.899 243.33 136.364 244.51 136.364 246.87C136.364 249.881 133.759 251.387 128.551 251.387C125.865 251.387 123.017 251.142 120.006 250.654C110.24 249.108 101.858 248.823 94.8596 249.8C87.9423 250.858 83.1816 251.387 80.5774 251.387ZM211.437 251.387C206.147 251.387 203.502 249.881 203.502 246.87C203.502 244.51 204.967 243.33 207.897 243.33L213.878 243.94C218.761 243.94 222.057 241.214 223.766 235.762C225.149 231.123 225.841 222.822 225.841 210.859V124.678C225.841 112.715 225.271 104.902 224.132 101.24C222.993 97.4966 221.609 94.9738 219.982 93.6718C218.435 92.2883 216.401 91.5966 213.878 91.5966L207.897 92.0848C204.967 92.0848 203.502 90.9048 203.502 88.5448C203.502 85.5337 205.74 84.0282 210.216 84.0282C214.692 84.0282 218.924 84.3537 222.911 85.0048C226.98 85.6558 231.456 85.9813 236.339 85.9813C241.303 85.9813 245.657 85.6558 249.401 85.0048C253.226 84.3537 256.562 84.0282 259.41 84.0282C276.826 84.0282 290.905 89.3179 301.647 99.8973C311.412 109.582 316.295 121.26 316.295 134.932C316.295 147.545 311.412 158.532 301.647 167.891C292.044 177.005 281.058 181.562 268.688 181.562C259.166 181.562 252.656 179.691 249.156 175.947C248.099 174.808 247.57 173.587 247.57 172.285C247.57 170.902 247.936 169.884 248.668 169.233C249.482 168.501 250.459 168.135 251.598 168.135C252.737 168.135 254.324 168.908 256.359 170.454C259.532 172.733 263.479 173.872 268.199 173.872C272.92 173.872 276.907 172.977 280.162 171.186C283.499 169.315 286.307 166.71 288.585 163.374C293.305 156.457 295.665 147.139 295.665 135.42C295.665 122.236 292.003 111.738 284.679 103.926C277.599 96.3573 268.403 92.5731 257.091 92.5731C252.941 92.5731 249.889 93.1428 247.936 94.2821C245.983 95.4214 245.006 97.3746 245.006 100.141V210.859C245.006 223.148 245.535 231.082 246.593 234.663C247.732 238.162 249.075 240.604 250.621 241.987C252.249 243.289 254.365 243.94 256.969 243.94L262.828 243.33C265.758 243.33 267.223 244.51 267.223 246.87C267.223 249.881 264.619 251.387 259.41 251.387C256.725 251.387 253.877 251.142 250.865 250.654C241.1 249.108 232.718 248.823 225.719 249.8C218.802 250.858 214.041 251.387 211.437 251.387Z" fill="#FAFAFA"/>
</g>
<g filter="url(#filter1_d)">
<path d="M339.117 271.795H32.975C31.4095 271.795 30.1404 273.064 30.1404 274.629V274.629C30.1404 276.195 31.4095 277.464 32.975 277.464H339.117C340.682 277.464 341.951 276.195 341.951 274.629C341.951 273.064 340.682 271.795 339.117 271.795Z" fill="url(#paint2_radial)"/>
</g>
<g filter="url(#filter2_d)">
<path d="M107.11 295.496V301.062H105.235V286.844H110.479C112.035 286.844 113.253 287.241 114.131 288.035C115.017 288.829 115.46 289.881 115.46 291.189C115.46 292.57 115.027 293.634 114.161 294.383C113.301 295.125 112.068 295.496 110.46 295.496H107.11ZM107.11 293.963H110.479C111.482 293.963 112.25 293.729 112.784 293.26C113.318 292.785 113.585 292.101 113.585 291.209C113.585 290.363 113.318 289.686 112.784 289.178C112.25 288.67 111.518 288.406 110.587 288.387H107.11V293.963ZM121.817 301.258C120.385 301.258 119.219 300.789 118.321 299.852C117.422 298.908 116.973 297.648 116.973 296.072V295.74C116.973 294.692 117.172 293.758 117.569 292.938C117.973 292.111 118.533 291.466 119.249 291.004C119.971 290.535 120.753 290.301 121.592 290.301C122.966 290.301 124.034 290.753 124.796 291.658C125.557 292.563 125.938 293.859 125.938 295.545V296.297H118.78C118.806 297.339 119.109 298.182 119.688 298.826C120.274 299.464 121.016 299.783 121.915 299.783C122.553 299.783 123.093 299.653 123.536 299.393C123.978 299.132 124.366 298.787 124.698 298.357L125.801 299.217C124.916 300.577 123.588 301.258 121.817 301.258ZM121.592 291.785C120.863 291.785 120.251 292.052 119.756 292.586C119.262 293.113 118.956 293.855 118.839 294.812H124.131V294.676C124.079 293.758 123.832 293.048 123.389 292.547C122.947 292.039 122.348 291.785 121.592 291.785ZM127.598 295.691C127.598 294.07 127.982 292.768 128.751 291.785C129.519 290.796 130.525 290.301 131.768 290.301C133.005 290.301 133.985 290.724 134.708 291.57V286.062H136.514V301.062H134.854L134.766 299.93C134.044 300.815 133.038 301.258 131.749 301.258C130.525 301.258 129.525 300.757 128.751 299.754C127.982 298.751 127.598 297.443 127.598 295.828V295.691ZM129.405 295.896C129.405 297.094 129.652 298.032 130.147 298.709C130.642 299.386 131.325 299.725 132.198 299.725C133.344 299.725 134.18 299.21 134.708 298.182V293.328C134.167 292.332 133.337 291.834 132.217 291.834C131.332 291.834 130.642 292.176 130.147 292.859C129.652 293.543 129.405 294.555 129.405 295.896ZM144.434 292.117C144.161 292.072 143.865 292.049 143.546 292.049C142.361 292.049 141.557 292.553 141.133 293.562V301.062H139.327V290.496H141.085L141.114 291.717C141.706 290.773 142.546 290.301 143.633 290.301C143.985 290.301 144.252 290.346 144.434 290.438V292.117ZM145.43 295.682C145.43 294.646 145.632 293.715 146.036 292.889C146.446 292.062 147.012 291.424 147.735 290.975C148.464 290.525 149.294 290.301 150.225 290.301C151.664 290.301 152.826 290.799 153.712 291.795C154.603 292.791 155.049 294.116 155.049 295.77V295.896C155.049 296.925 154.851 297.85 154.454 298.67C154.063 299.484 153.5 300.118 152.764 300.574C152.035 301.03 151.195 301.258 150.245 301.258C148.812 301.258 147.65 300.76 146.758 299.764C145.873 298.768 145.43 297.449 145.43 295.809V295.682ZM147.247 295.896C147.247 297.068 147.517 298.009 148.057 298.719C148.604 299.428 149.333 299.783 150.245 299.783C151.163 299.783 151.892 299.425 152.432 298.709C152.973 297.986 153.243 296.977 153.243 295.682C153.243 294.523 152.966 293.585 152.413 292.869C151.866 292.146 151.137 291.785 150.225 291.785C149.333 291.785 148.614 292.14 148.067 292.85C147.52 293.559 147.247 294.575 147.247 295.896ZM164.434 295.496V301.062H162.559V286.844H167.803C169.359 286.844 170.577 287.241 171.456 288.035C172.341 288.829 172.784 289.881 172.784 291.189C172.784 292.57 172.351 293.634 171.485 294.383C170.626 295.125 169.392 295.496 167.784 295.496H164.434ZM164.434 293.963H167.803C168.806 293.963 169.574 293.729 170.108 293.26C170.642 292.785 170.909 292.101 170.909 291.209C170.909 290.363 170.642 289.686 170.108 289.178C169.574 288.67 168.842 288.406 167.911 288.387H164.434V293.963ZM181.417 300.018C180.714 300.844 179.682 301.258 178.321 301.258C177.195 301.258 176.335 300.932 175.743 300.281C175.157 299.624 174.861 298.654 174.854 297.371V290.496H176.661V297.322C176.661 298.924 177.312 299.725 178.614 299.725C179.994 299.725 180.912 299.21 181.368 298.182V290.496H183.174V301.062H181.456L181.417 300.018ZM191.036 292.117C190.762 292.072 190.466 292.049 190.147 292.049C188.962 292.049 188.158 292.553 187.735 293.562V301.062H185.928V290.496H187.686L187.715 291.717C188.308 290.773 189.148 290.301 190.235 290.301C190.587 290.301 190.853 290.346 191.036 290.438V292.117ZM194.669 301.062H192.862V290.496H194.669V301.062ZM192.715 287.693C192.715 287.4 192.803 287.153 192.979 286.951C193.161 286.749 193.428 286.648 193.78 286.648C194.131 286.648 194.398 286.749 194.581 286.951C194.763 287.153 194.854 287.4 194.854 287.693C194.854 287.986 194.763 288.23 194.581 288.426C194.398 288.621 194.131 288.719 193.78 288.719C193.428 288.719 193.161 288.621 192.979 288.426C192.803 288.23 192.715 287.986 192.715 287.693ZM199.376 291.775C200.176 290.792 201.218 290.301 202.501 290.301C204.734 290.301 205.86 291.561 205.88 294.08V301.062H204.073V294.07C204.066 293.309 203.891 292.745 203.546 292.381C203.207 292.016 202.676 291.834 201.954 291.834C201.368 291.834 200.853 291.99 200.411 292.303C199.968 292.615 199.623 293.025 199.376 293.533V301.062H197.569V286.062H199.376V291.775ZM215.108 300.018C214.405 300.844 213.373 301.258 212.012 301.258C210.886 301.258 210.027 300.932 209.434 300.281C208.848 299.624 208.552 298.654 208.546 297.371V290.496H210.352V297.322C210.352 298.924 211.003 299.725 212.305 299.725C213.686 299.725 214.603 299.21 215.059 298.182V290.496H216.866V301.062H215.147L215.108 300.018ZM226.143 301.062C226.039 300.854 225.954 300.483 225.889 299.949C225.049 300.822 224.047 301.258 222.881 301.258C221.84 301.258 220.984 300.965 220.313 300.379C219.649 299.786 219.317 299.038 219.317 298.133C219.317 297.033 219.734 296.18 220.567 295.574C221.407 294.962 222.585 294.656 224.102 294.656H225.86V293.826C225.86 293.195 225.671 292.693 225.294 292.322C224.916 291.945 224.359 291.756 223.624 291.756C222.979 291.756 222.439 291.919 222.003 292.244C221.566 292.57 221.348 292.964 221.348 293.426H219.532C219.532 292.898 219.717 292.391 220.089 291.902C220.466 291.408 220.974 291.017 221.612 290.73C222.256 290.444 222.963 290.301 223.731 290.301C224.949 290.301 225.902 290.607 226.592 291.219C227.283 291.824 227.641 292.661 227.667 293.729V298.592C227.667 299.562 227.79 300.333 228.038 300.906V301.062H226.143ZM223.145 299.686C223.712 299.686 224.249 299.539 224.756 299.246C225.264 298.953 225.632 298.572 225.86 298.104V295.936H224.444C222.23 295.936 221.124 296.583 221.124 297.879C221.124 298.445 221.312 298.888 221.69 299.207C222.068 299.526 222.553 299.686 223.145 299.686ZM232.198 290.496L232.247 291.668C233.021 290.757 234.066 290.301 235.381 290.301C236.859 290.301 237.865 290.867 238.399 292C238.751 291.492 239.206 291.082 239.766 290.77C240.333 290.457 241 290.301 241.768 290.301C244.086 290.301 245.264 291.528 245.303 293.982V301.062H243.497V294.09C243.497 293.335 243.324 292.771 242.979 292.4C242.634 292.023 242.055 291.834 241.241 291.834C240.57 291.834 240.014 292.036 239.571 292.439C239.128 292.837 238.871 293.374 238.799 294.051V301.062H236.983V294.139C236.983 292.602 236.231 291.834 234.727 291.834C233.542 291.834 232.732 292.339 232.296 293.348V301.062H230.489V290.496H232.198ZM254.561 301.062C254.457 300.854 254.372 300.483 254.307 299.949C253.467 300.822 252.465 301.258 251.299 301.258C250.258 301.258 249.402 300.965 248.731 300.379C248.067 299.786 247.735 299.038 247.735 298.133C247.735 297.033 248.152 296.18 248.985 295.574C249.825 294.962 251.003 294.656 252.52 294.656H254.278V293.826C254.278 293.195 254.089 292.693 253.712 292.322C253.334 291.945 252.777 291.756 252.042 291.756C251.397 291.756 250.857 291.919 250.421 292.244C249.984 292.57 249.766 292.964 249.766 293.426H247.95C247.95 292.898 248.135 292.391 248.506 291.902C248.884 291.408 249.392 291.017 250.03 290.73C250.674 290.444 251.381 290.301 252.149 290.301C253.366 290.301 254.32 290.607 255.01 291.219C255.7 291.824 256.059 292.661 256.085 293.729V298.592C256.085 299.562 256.208 300.333 256.456 300.906V301.062H254.561ZM251.563 299.686C252.13 299.686 252.667 299.539 253.174 299.246C253.682 298.953 254.05 298.572 254.278 298.104V295.936H252.862C250.648 295.936 249.542 296.583 249.542 297.879C249.542 298.445 249.73 298.888 250.108 299.207C250.486 299.526 250.971 299.686 251.563 299.686ZM260.626 290.496L260.684 291.824C261.491 290.809 262.546 290.301 263.848 290.301C266.081 290.301 267.208 291.561 267.227 294.08V301.062H265.421V294.07C265.414 293.309 265.238 292.745 264.893 292.381C264.555 292.016 264.024 291.834 263.301 291.834C262.715 291.834 262.201 291.99 261.758 292.303C261.316 292.615 260.971 293.025 260.723 293.533V301.062H258.917V290.496H260.626Z" fill="#162530"/>
</g>
</g>
<defs>
<filter id="filter0_d" x="68.6428" y="84.0282" width="251.652" height="175.358" filterUnits="userSpaceOnUse" color-interpolation-filters="sRGB">
<feFlood flood-opacity="0" result="BackgroundImageFix"/>
<feColorMatrix in="SourceAlpha" type="matrix" values="0 0 0 0 0 0 0 0 0 0 0 0 0 0 0 0 0 0 127 0"/>
<feOffset dy="4"/>
<feGaussianBlur stdDeviation="2"/>
<feColorMatrix type="matrix" values="0 0 0 0 0 0 0 0 0 0 0 0 0 0 0 0 0 0 0.25 0"/>
<feBlend mode="normal" in2="BackgroundImageFix" result="effect1_dropShadow"/>
<feBlend mode="normal" in="SourceGraphic" in2="effect1_dropShadow" result="shape"/>
</filter>
<filter id="filter1_d" x="26.1404" y="271.795" width="319.811" height="13.6693" filterUnits="userSpaceOnUse" color-interpolation-filters="sRGB">
<feFlood flood-opacity="0" result="BackgroundImageFix"/>
<feColorMatrix in="SourceAlpha" type="matrix" values="0 0 0 0 0 0 0 0 0 0 0 0 0 0 0 0 0 0 127 0"/>
<feOffset dy="4"/>
<feGaussianBlur stdDeviation="2"/>
<feColorMatrix type="matrix" values="0 0 0 0 0 0 0 0 0 0 0 0 0 0 0 0 0 0 0.25 0"/>
<feBlend mode="normal" in2="BackgroundImageFix" result="effect1_dropShadow"/>
<feBlend mode="normal" in="SourceGraphic" in2="effect1_dropShadow" result="shape"/>
</filter>
<filter id="filter2_d" x="101.235" y="286.062" width="169.992" height="23.1953" filterUnits="userSpaceOnUse" color-interpolation-filters="sRGB">
<feFlood flood-opacity="0" result="BackgroundImageFix"/>
<feColorMatrix in="SourceAlpha" type="matrix" values="0 0 0 0 0 0 0 0 0 0 0 0 0 0 0 0 0 0 127 0"/>
<feOffset dy="4"/>
<feGaussianBlur stdDeviation="2"/>
<feColorMatrix type="matrix" values="0 0 0 0 0 0 0 0 0 0 0 0 0 0 0 0 0 0 0.25 0"/>
<feBlend mode="normal" in2="BackgroundImageFix" result="effect1_dropShadow"/>
<feBlend mode="normal" in="SourceGraphic" in2="effect1_dropShadow" result="shape"/>
</filter>
<radialGradient id="paint0_radial" cx="0" cy="0" r="1" gradientUnits="userSpaceOnUse" gradientTransform="translate(186.094 190.443) rotate(90) scale(190.443 186.094)">
<stop offset="0.0502368" stop-color="#0191FF"/>
<stop offset="0.951332" stop-color="#0191FF"/>
<stop offset="1" stop-color="#1F1F1F" stop-opacity="0.8"/>
</radialGradient>
<radialGradient id="paint1_radial" cx="0" cy="0" r="1" gradientUnits="userSpaceOnUse" gradientTransform="translate(186.094 190.443) rotate(90) scale(190.443 186.094)">
<stop offset="0.737778" stop-color="#FAFAFA"/>
<stop offset="1" stop-color="#162530"/>
</radialGradient>
<radialGradient id="paint2_radial" cx="0" cy="0" r="1" gradientUnits="userSpaceOnUse" gradientTransform="translate(186.046 274.629) rotate(90) scale(2.83464 155.906)">
<stop offset="0.279417" stop-color="#FAFAFA"/>
<stop offset="0.46172" stop-color="#0191FF"/>
</radialGradient>
<clipPath id="clip0">
<rect width="372.187" height="380.886" rx="186.094" fill="white"/>
</clipPath>
</defs>
</svg>
